Coordinates
version=1
nRows=14
nColumns=28
inDegrees=yes

Units are S.I. units (second, meters, Newtons, ...)
Angles are in degrees.

endheader
time	pelvis_tilt	pelvis_list	pelvis_rotation	pelvis_tx	pelvis_ty	pelvis_tz	hip_flexion_r	hip_adduction_r	hip_rotation_r	knee_angle_r	ankle_angle_r	subtalar_angle_r	mtp_angle_r	hip_flexion_l	hip_adduction_l	hip_rotation_l	knee_angle_l	socket_flexion	socket_adduction	socket_rotation	socket_tx	socket_ty	socket_tz	foot_flex	lumbar_extension	lumbar_bending	lumbar_rotation
      0.82083333	     -1.35490231	     -8.21253764	      7.27217072	      0.35056474	      0.98255385	      0.23588885	      8.38212513	     16.69041792	      6.75955523	    -17.86059173	      1.33502910	    -29.24082322	     -7.96149236	     25.33720047	    -12.11986813	      3.97664360	    -72.14386908	     -2.66300991	      0.00000000	      0.00000000	      0.00000000	     -0.00304254	      0.00000000	     -1.17459894	     -5.49133267	      7.08703661	     -9.04083999
      0.82500000	     -1.46922954	     -7.89937941	      7.17475150	      0.35566511	      0.98371022	      0.23512456	      7.89932931	     16.27692650	      6.81356673	    -17.51205219	      1.35203982	    -28.95985269	     -7.83304213	     26.08254305	    -11.40126828	      4.23342878	    -71.77870213	     -2.63856029	      0.00000000	      0.00000000	      0.00000000	     -0.00223628	      0.00000000	     -1.19710377	     -5.45977426	      6.77724457	     -8.96533123
      0.82916667	     -1.59367269	     -7.59660333	      7.09455889	      0.36084581	      0.98480370	      0.23438973	      7.42309046	     15.87355418	      6.85666621	    -17.14471968	      1.36503526	    -28.66035860	     -7.69263321	     26.80791488	    -10.71603011	      4.47702057	    -71.37259301	     -2.66540948	      0.00000000	      0.00000000	      0.00000000	     -0.00148250	      0.00000000	     -1.21132473	     -5.41635456	      6.48210311	     -8.88548705
      0.83333333	     -1.61228879	     -7.53662023	      6.80745680	      0.36580723	      0.98573012	      0.23413272	      7.05675524	     15.78231436	      6.80481291	    -17.13249233	      1.37579020	    -28.60673228	     -7.66635029	     27.38781833	    -10.47124341	      4.55556024	    -71.01228760	     -2.82491593	      0.00000000	      0.00000000	      0.00000000	     -0.00130251	      0.00000000	     -1.18178797	     -5.54901460	      6.49908988	     -8.86384348
      0.83750000	     -1.79982731	     -7.10813908	      6.87491263	      0.37121784	      0.98682275	      0.23330914	      6.44779594	     15.25102606	      7.07019031	    -16.42338742	      1.35434954	    -28.20862027	     -7.50656738	     28.23342269	     -9.59378469	      4.89320122	    -70.65410973	     -2.90778914	      0.00000000	      0.00000000	      0.00000000	      0.00034100	      0.00000000	     -1.23681933	     -5.36689160	      5.99481586	     -8.71626123
      0.84166667	     -1.92843782	     -6.86738381	      6.78976024	      0.37654565	      0.98777375	      0.23277157	      5.97982264	     14.92574837	      7.07875740	    -16.03322916	      1.31541969	    -27.90017279	     -7.35420011	     28.90480254	     -9.05366268	      5.09578693	    -70.16311311	     -3.01405234	      0.00000000	      0.00000000	      0.00000000	      0.00114669	      0.00000000	     -1.24511563	     -5.27874502	      5.75401871	     -8.61915586
      0.84583333	     -2.02053211	     -6.66877170	      6.66722146	      0.38176355	      0.98869253	      0.23238535	      5.52159256	     14.66922108	      7.12348347	    -15.71720896	      1.28610300	    -27.64718956	     -7.21440682	     29.55298206	     -8.61058975	      5.25929722	    -69.71174640	     -3.18808178	      0.00000000	      0.00000000	      0.00000000	      0.00205998	      0.00000000	     -1.23866693	     -5.25520136	      5.57086530	     -8.54085739
      0.85000000	     -2.11629289	     -6.49476216	      6.54624759	      0.38706772	      0.98954539	      0.23208281	      5.05500612	     14.44953179	      7.19539395	    -15.37625778	      1.24810037	    -27.41830935	     -7.08031442	     30.18899932	     -8.22412886	      5.40659147	    -69.26714617	     -3.42757288	      0.00000000	      0.00000000	      0.00000000	      0.00298861	      0.00000000	     -1.23383152	     -5.21127871	      5.39303420	     -8.45599830
      0.85416667	     -2.11905197	     -6.45983414	      6.31635367	      0.39193173	      0.99028352	      0.23216440	      4.72886253	     14.42540709	      7.15422889	    -15.41374354	      1.24599184	    -27.38832643	     -7.06278763	     30.75464661	     -8.10587143	      5.47553315	    -68.83694939	     -3.68969379	      0.00000000	      0.00000000	      0.00000000	      0.00362975	      0.00000000	     -1.18125057	     -5.36440587	      5.39112928	     -8.44254172
      0.85833333	     -2.29928653	     -6.22803589	      6.27356881	      0.39766245	      0.99104051	      0.23169750	      4.14976571	     14.13093571	      7.42775358	    -14.74854284	      1.16574347	    -27.13165051	     -6.94293035	     31.44492384	     -7.62805210	      5.63581866	    -68.44461090	     -4.10193996	      0.00000000	      0.00000000	      0.00000000	      0.00499171	      0.00000000	     -1.20820523	     -5.13283244	      5.13720107	     -8.29472631
      0.86250000	     -2.39842943	     -6.12608265	      6.13843958	      0.40291761	      0.99173171	      0.23165315	      3.69450808	     14.01486723	      7.56710200	    -14.37096225	      0.98039013	    -26.95056063	     -6.79168673	     32.06882204	     -7.39288505	      5.75425855	    -67.96773670	     -4.42022949	      0.00000000	      0.00000000	      0.00000000	      0.00603587	      0.00000000	     -1.20187349	     -5.09321159	      5.00046612	     -8.15591164
      0.86666667	     -2.49560103	     -6.04126373	      5.98126990	      0.40824675	      0.99235778	      0.23164399	      3.26284695	     13.92150205	      7.69510350	    -14.05937288	      0.87285824	    -26.88013438	     -6.68054071	     32.65295334	     -7.21541741	      5.81920166	    -67.51428471	     -4.85043573	      0.00000000	      0.00000000	      0.00000000	      0.00705402	      0.00000000	     -1.17694525	     -5.03837807	      4.90069469	     -8.04878444
      0.87083333	     -2.58540629	     -5.98059856	      5.82326120	      0.41356871	      0.99290679	      0.23162767	      2.84623070	     13.85918252	      7.84987424	    -13.78886660	      0.75815258	    -26.84634066	     -6.60326831	     33.21801765	     -7.07041300	      5.88578209	    -67.07193643	     -5.34768594	      0.00000000	      0.00000000	      0.00000000	      0.00805192	      0.00000000	     -1.13710014	     -4.98743092	      4.85349302	     -7.94990204
      0.87500000	     -2.59503765	     -5.96143709	      5.66229757	      0.41834673	      0.99344304	      0.23176844	      2.54793192	     13.86469312	      7.83128769	    -13.82126375	      0.74376226	    -26.84458763	     -6.59510499	     33.77346594	     -7.01138545	      5.92976808	    -66.60329435	     -5.74614490	      0.00000000	      0.00000000	      0.00000000	      0.00912607	      0.00000000	     -1.07787537	     -5.14388122	      4.85219059	     -7.93820168
